<svg xmlns="http://www.w3.org/2000/svg" width="20.336" height="19.106" viewBox="0 0 20.336 19.106">
  <g id="track" transform="translate(0 -15.49)">
    <g id="Group_1018" data-name="Group 1018" transform="translate(0 15.49)">
      <g id="Group_1017" data-name="Group 1017">
        <circle id="Ellipse_18" data-name="Ellipse 18" cx="0.794" cy="0.794" r="0.794" transform="translate(1.589 6.038)" fill="#fff"/>
        <circle id="Ellipse_19" data-name="Ellipse 19" cx="0.794" cy="0.794" r="0.794" transform="translate(1.589 17.517)" fill="#fff"/>
        <circle id="Ellipse_20" data-name="Ellipse 20" cx="0.794" cy="0.794" r="0.794" transform="translate(1.589 11.757)" fill="#fff"/>
        <circle id="Ellipse_21" data-name="Ellipse 21" cx="0.794" cy="0.794" r="0.794" transform="translate(1.589 8.898)" fill="#fff"/>
        <circle id="Ellipse_22" data-name="Ellipse 22" cx="0.794" cy="0.794" r="0.794" transform="translate(1.589 14.657)" fill="#fff"/>
        <circle id="Ellipse_23" data-name="Ellipse 23" cx="0.794" cy="0.794" r="0.794" transform="translate(4.528 17.517)" fill="#fff"/>
        <path id="Path_270" data-name="Path 270" d="M281.771,108.413a2.78,2.78,0,1,0,2.78,2.78A2.784,2.784,0,0,0,281.771,108.413Zm0,3.972a1.192,1.192,0,1,1,1.192-1.192A1.193,1.193,0,0,1,281.771,112.385Z" transform="translate(-267.909 -104.722)" fill="#fff"/>
        <circle id="Ellipse_24" data-name="Ellipse 24" cx="0.794" cy="0.794" r="0.794" transform="translate(13.108 17.517)" fill="#fff"/>
        <path id="Path_271" data-name="Path 271" d="M192.461,15.491a6.48,6.48,0,0,0-6.475,6.471v.174c0,1.8,1.021,3.883,3.036,6.195a26.062,26.062,0,0,0,2.94,2.872l.5.4.5-.4a26.054,26.054,0,0,0,2.94-2.872c2.014-2.311,3.036-4.4,3.036-6.195v-.174A6.48,6.48,0,0,0,192.461,15.491Zm4.886,6.471v.174c0,1.38-.909,3.155-2.629,5.133a25.436,25.436,0,0,1-2.257,2.27,25.4,25.4,0,0,1-2.241-2.252c-1.73-1.985-2.645-3.766-2.645-5.151v-.174a4.886,4.886,0,0,1,9.771,0Z" transform="translate(-178.599 -15.491)" fill="#fff"/>
        <path id="Path_272" data-name="Path 272" d="M2.383,15.49a2.383,2.383,0,1,0,2.383,2.383A2.386,2.386,0,0,0,2.383,15.49Zm0,3.178a.794.794,0,1,1,.794-.794A.8.8,0,0,1,2.383,18.668Z" transform="translate(0 -15.49)" fill="#fff"/>
        <circle id="Ellipse_25" data-name="Ellipse 25" cx="0.794" cy="0.794" r="0.794" transform="translate(7.388 17.517)" fill="#fff"/>
        <circle id="Ellipse_26" data-name="Ellipse 26" cx="0.794" cy="0.794" r="0.794" transform="translate(10.248 17.517)" fill="#fff"/>
      </g>
    </g>
  </g>
</svg>
